<svg preserveAspectRatio="none" width="100%" height="100%" overflow="visible" style="display: block;" viewBox="0 0 112 30" fill="none" xmlns="http://www.w3.org/2000/svg">
<g id="ENERBAND">
<path id="Vector" d="M84.5617 10.6759C85.3957 10.6759 86.0212 10.4276 86.5215 9.88969C87.0219 9.35176 87.2721 8.64831 87.2721 7.73796H84.937V8.27589H86.6466C86.5632 8.81382 86.3547 9.269 85.9794 9.60003C85.6042 9.93107 85.1455 10.0966 84.5617 10.0966C83.978 10.0966 83.6861 9.97245 83.3108 9.76555C82.9356 9.51727 82.6437 9.22762 82.3935 8.81382C82.185 8.40003 82.0599 7.98624 82.0599 7.53106C82.0599 7.07589 82.185 6.70348 82.3935 6.28968C82.602 5.91727 82.8939 5.58623 83.2691 5.37933C83.6444 5.17244 84.0614 5.0483 84.4784 5.0483C84.8953 5.0483 85.1872 5.13106 85.5208 5.29658C85.8961 5.46209 86.1879 5.71037 86.5215 6.0414L86.9385 5.62761C86.5632 5.21382 86.1462 4.92416 85.771 4.75864C85.3957 4.59313 84.937 4.46899 84.4784 4.46899C84.0197 4.46899 83.3942 4.59313 82.9773 4.88278C82.5186 5.17244 82.185 5.54485 81.9348 6.00003C81.6846 6.4552 81.5596 6.99313 81.5596 7.57244C81.5596 8.15175 81.768 8.97934 82.2267 9.55865C82.7688 10.3035 83.561 10.6759 84.5617 10.6759ZM96.5288 22.0139L91.3167 13.6138C91.2333 13.4897 91.1082 13.4069 90.9414 13.4069H87.5222C87.2721 13.4069 87.1053 13.5725 87.1053 13.8207V21.0621L90.5244 26.5656V19.1173C90.5244 18.9104 90.8163 18.8276 90.8997 18.9932L96.0702 27.5173C96.1535 27.6415 96.2786 27.7242 96.4454 27.7242H99.9063C100.156 27.7242 100.323 27.5587 100.323 27.3104V13.8207C100.323 13.5725 100.156 13.4069 99.9063 13.4069H97.3211C97.0709 13.4069 96.9041 13.5725 96.9041 13.8207V21.8897C96.9041 22.0966 96.6122 22.1794 96.5288 22.0139ZM69.2589 7.77934H69.5508L71.4689 10.5104H72.136L70.2179 7.77934C70.6766 7.77934 71.0102 7.69658 71.2604 7.57244C71.5105 7.4483 71.719 7.28279 71.8441 7.03451C71.9692 6.78623 72.0526 6.49658 72.0526 6.20692C72.0526 5.91727 71.9692 5.50347 71.7607 5.2552C71.5522 5.00692 71.3021 4.80002 70.9685 4.75864C70.76 4.71726 70.343 4.67588 69.7593 4.67588H68.6751V10.5518H69.2172V7.77934H69.2589ZM69.2589 5.21382H70.2179C70.5932 5.21382 70.8434 5.2552 71.0102 5.33795C71.177 5.42071 71.3021 5.50347 71.3855 5.66899C71.4689 5.83451 71.5522 6.00003 71.5522 6.20692C71.5522 6.41382 71.5106 6.57934 71.4272 6.74485C71.3438 6.91037 71.177 7.03451 71.0102 7.11727C70.8434 7.20003 70.5515 7.24141 70.2179 7.24141H69.3006V5.21382H69.2589ZM75.8054 10.6759C76.5976 10.6759 77.2647 10.3862 77.8068 9.76555C78.3489 9.14486 78.6408 8.44141 78.6408 7.57244C78.6408 6.70347 78.3489 5.95865 77.8068 5.37933C77.2647 4.80002 76.5559 4.46899 75.7637 4.46899C74.9714 4.46899 74.8046 4.59313 74.346 4.88278C73.929 5.17244 73.5537 5.54485 73.3035 6.00003C73.0533 6.49658 72.9282 6.99313 72.9282 7.57244C72.9282 8.40003 73.2201 9.14486 73.7622 9.72417C74.346 10.3862 75.0131 10.6759 75.8054 10.6759ZM73.8456 6.33106C74.0541 5.95865 74.346 5.62761 74.6795 5.42071C75.0548 5.21382 75.4301 5.08968 75.8054 5.08968C76.1806 5.08968 76.5976 5.21382 76.9729 5.42071C77.3481 5.62761 77.5983 5.95865 77.8068 6.33106C78.0153 6.70347 78.0987 7.11727 78.0987 7.61382C78.0987 8.11037 78.0153 8.52417 77.8068 8.89658C77.5983 9.269 77.3481 9.60003 76.9729 9.80693C76.5976 10.0138 76.2223 10.138 75.8054 10.138C75.1799 10.138 74.6378 9.88969 74.1792 9.43452C73.7205 8.93796 73.512 8.35865 73.512 7.6552C73.512 7.11727 73.6371 6.70347 73.8456 6.33106ZM88.8149 7.77934H89.1067L91.0248 10.5104H91.692L89.7739 7.77934C90.2326 7.77934 90.5661 7.69658 90.8163 7.57244C91.0665 7.4483 91.275 7.28279 91.4001 7.03451C91.5252 6.78623 91.6086 6.49658 91.6086 6.20692C91.6086 5.91727 91.5252 5.50347 91.3167 5.2552C91.1082 5.00692 90.858 4.80002 90.5244 4.75864C90.3159 4.71726 89.899 4.67588 89.3152 4.67588H88.2728V10.5518H88.8149V7.77934ZM88.8149 5.21382H89.7739C90.1492 5.21382 90.3993 5.2552 90.5661 5.33795C90.7329 5.42071 90.858 5.50347 90.9414 5.66899C91.0248 5.83451 91.1082 6.00003 91.1082 6.20692C91.1082 6.41382 91.0665 6.57934 90.9831 6.74485C90.8997 6.91037 90.7329 7.03451 90.5661 7.11727C90.3993 7.20003 90.1075 7.24141 89.7739 7.24141H88.8565V5.21382H88.8149ZM109.663 10.5104H110.205V7.69658L111.915 4.6345H111.29L109.914 7.07589L108.538 4.6345H107.912L109.663 7.69658V10.5104ZM105.827 10.5104H106.369V5.21382H107.579V4.6345H104.618V5.21382H105.827V10.5104ZM93.7351 8.60693H96.0702L96.9041 10.5518H97.4879L94.986 4.67588H94.8609L92.3174 10.5518H92.9012L93.7351 8.60693ZM94.9026 5.87589L95.82 7.98624H93.9853L94.9026 5.87589ZM103.993 4.6345H103.451V10.5104H103.993V4.6345ZM104.701 13.4069H101.074C100.949 13.4069 100.865 13.4897 100.865 13.6138V16.469C100.865 16.5932 100.949 16.6759 101.074 16.6759H104.827C106.953 16.6759 108.663 18.3725 108.663 20.4828V20.5656C108.663 22.6759 106.953 24.3725 104.827 24.3725H101.074C100.949 24.3725 100.865 24.4552 100.865 24.5794V27.4346C100.865 27.5587 100.949 27.6415 101.074 27.6415H104.785C108.788 27.6415 112.082 24.3725 111.998 20.3173C111.915 16.2621 108.621 13.4069 104.701 13.4069ZM77.5566 23.338C77.5566 21.8483 76.8061 20.5656 75.6803 19.738C75.9721 19.1587 76.1389 18.4552 76.1389 17.7518C76.1389 15.3518 74.1792 13.3656 71.719 13.3656H57.6254C58.0841 12.538 58.3343 11.5449 58.3343 10.5518C58.3343 7.15865 55.5822 4.42761 52.1631 4.42761H42.9063C42.6561 4.42761 42.4894 4.59313 42.4894 4.8414V25.4897H46.0753C46.3255 25.4897 46.4923 25.3242 46.4923 25.0759V17.0897C46.4923 16.8414 46.6591 16.6759 46.9093 16.6759H71.719C72.3445 16.6759 72.8032 17.1725 72.8032 17.7518C72.8032 18.3311 72.3028 18.8276 71.719 18.8276H57.1667C56.8332 18.8276 56.6247 19.2001 56.7915 19.4483L61.8368 27.5587C61.8368 27.6001 61.9619 27.6415 62.0036 27.6415H73.095C75.5969 27.6415 77.5566 25.6966 77.5566 23.2966V23.338ZM51.9129 13.4069H46.5757V8.44141H51.9129C53.2472 8.44141 54.373 9.60003 54.373 10.9242C54.373 12.2483 53.2472 13.4069 51.9129 13.4069ZM73.1784 24.4139H64.4637C64.3803 24.4139 64.3386 24.4139 64.2969 24.3311L63.1711 22.5518C63.0877 22.4276 63.1711 22.2208 63.3379 22.2208H73.1784C73.8039 22.2208 74.2626 22.7173 74.2626 23.2966C74.2626 23.9173 73.7622 24.4139 73.1784 24.4139ZM77.7651 13.4069H74.3877C75.8471 14.2345 76.8478 15.8897 76.8478 17.669C76.8478 19.4483 76.7644 18.9518 76.4308 19.5725C77.64 20.4001 78.1404 22.0139 78.1404 23.5863C78.1404 25.1587 77.2648 26.8966 75.8888 27.7242H80.5588C80.809 27.7242 80.9758 27.5587 80.9758 27.3104V24.6208C80.9758 24.4966 81.0592 24.4139 81.1843 24.4139H84.5617C84.6451 24.4139 84.6868 24.4139 84.7285 24.4966L86.5632 27.4759C86.6466 27.6001 86.7717 27.6828 86.9385 27.6828H89.8156C90.1492 27.6828 90.3576 27.3104 90.1909 27.0621L81.8514 13.5725C81.768 13.4483 81.6429 13.3656 81.4762 13.3656H77.8068L77.7651 13.4069ZM80.9758 22.0139V19.0759C80.9758 18.869 81.2677 18.7863 81.3511 18.9518L83.144 21.8897C83.2274 22.0139 83.144 22.2208 82.9773 22.2208H81.1843C81.0592 22.2208 80.9758 22.138 80.9758 22.0139ZM67.7995 9.93107H65.256V7.61382H67.7995V7.03451H65.256V5.17244H67.7995V4.59313H64.7139V10.469H67.7995V9.93107ZM102.075 4.6345L100.24 9.18624L98.4469 4.6345H97.8631L100.156 10.5104H100.282L102.617 4.6345H102.075ZM0.416971 25.4897H11.0914C11.3416 25.4897 11.5084 25.3242 11.5084 25.0759V21.9311C11.5084 21.6828 11.3416 21.5173 11.0914 21.5173H4.21141C4.08632 21.5173 4.00292 21.4345 4.00292 21.3104V16.8828C4.00292 16.7587 4.08632 16.6759 4.21141 16.6759H11.008C11.1331 16.6759 11.2165 16.5932 11.2165 16.469V13.6138C11.2165 13.4897 11.1331 13.4069 11.008 13.4069H4.21141C4.08632 13.4069 4.00292 13.3242 4.00292 13.2V8.64831C4.00292 8.52417 4.08632 8.44141 4.21141 8.44141H11.0914C11.3416 8.44141 11.5084 8.27589 11.5084 8.02762V4.88278C11.5084 4.63451 11.3416 4.46899 11.0914 4.46899H0.416971C0.166788 4.46899 0 4.63451 0 4.88278V25.0759C0 25.3242 0.166788 25.4897 0.416971 25.4897ZM49.3694 19.2001L54.5398 27.5587C54.6232 27.6828 54.7483 27.7656 54.9151 27.7656H58.376C58.7095 27.7656 58.918 27.3932 58.7512 27.1449L53.7059 19.0345C53.7059 18.9932 53.5808 18.9518 53.5391 18.9518H49.6196C49.4528 18.9518 49.3694 19.1173 49.4528 19.2828L49.3694 19.2001ZM63.6715 10.5104V9.93107H61.5449L63.7966 4.6345H60.9612V5.21382H63.0043L60.7527 10.5104H63.6715ZM24.643 17.6276L16.6371 4.67588C16.5538 4.55175 16.4287 4.46899 16.2619 4.46899H12.9261C12.6759 4.46899 12.5091 4.63451 12.5091 4.88278V25.1173C12.5091 25.3656 12.6759 25.5311 12.9261 25.5311H16.0951C16.3453 25.5311 16.5121 25.3656 16.5121 25.1173V12.3725C16.5121 12.1656 16.8039 12.0828 16.8873 12.2483L24.8932 25.3242C24.9766 25.4483 25.1017 25.5311 25.2685 25.5311H28.6042C28.8544 25.5311 29.0212 25.3656 29.0212 25.1173V4.88278C29.0212 4.63451 28.8544 4.46899 28.6042 4.46899H25.4352C25.1851 4.46899 25.0183 4.63451 25.0183 4.88278V17.5035C25.0183 17.7104 24.7264 17.7932 24.643 17.6276ZM30.4389 25.4897H41.1134C41.3635 25.4897 41.5303 25.3242 41.5303 25.0759V21.9311C41.5303 21.6828 41.3635 21.5173 41.1134 21.5173H34.2333C34.1082 21.5173 34.0248 21.4345 34.0248 21.3104V16.8828C34.0248 16.7587 34.1082 16.6759 34.2333 16.6759H41.03C41.155 16.6759 41.2384 16.5932 41.2384 16.469V13.6138C41.2384 13.4897 41.155 13.4069 41.03 13.4069H34.2333C34.1082 13.4069 34.0248 13.3242 34.0248 13.2V8.64831C34.0248 8.52417 34.1082 8.44141 34.2333 8.44141H41.1134C41.3635 8.44141 41.5303 8.27589 41.5303 8.02762V4.88278C41.5303 4.63451 41.3635 4.46899 41.1134 4.46899H30.4389C30.1887 4.46899 30.0219 4.63451 30.0219 4.88278V25.0759C30.0219 25.3242 30.1887 25.4897 30.4389 25.4897Z" fill="var(--fill-0, white)"/>
<path id="Vector Green" d="M18.4299 18.0827V29.9999H25.7269L18.4299 18.0827Z" fill="var(--fill-0, #51BC9C)"/>
<path id="Magent" d="M23.3506 0H16.0119L23.3506 11.8759V0Z" fill="var(--fill-0, #E35EA6)"/>
</g>
</svg>
