<?xml version="1.0" encoding="UTF-8"?>
<svg id="Layer_1" xmlns="http://www.w3.org/2000/svg" version="1.1" viewBox="0 0 392 392">
  <!-- Generator: Adobe Illustrator 30.5.1, SVG Export Plug-In . SVG Version: 2.1.4 Build 3)  -->
  <defs>
    <style>
      .st0 {
        fill: #ab6125;
      }

      .st1 {
        fill: #fff;
      }

      .st2 {
        fill: #44b2b6;
      }

      .st3 {
        fill: #f1cdb0;
      }
    </style>
  </defs>
  <path class="st2" d="M356.07,392H35.93c-19.6,0-35.93-14.7-35.93-34.3,0-127.4,89.83-161.7,196-161.7s196,34.3,196,161.7c0,19.6-16.33,34.3-35.93,34.3Z"/>
  <path class="st1" d="M120.87,195l78.4,34.3-28.33,43.25c-1.24,1.89-4.04,1.81-5.17-.14l-44.9-77.41Z"/>
  <path class="st1" d="M271.13,196.63l-75.13,32.67,28.27,43.14c1.25,1.92,4.1,1.81,5.2-.2l41.66-75.61Z"/>
  <path class="st3" d="M196,228.67c61.34,0,111.07-47.53,111.07-106.17s-49.73-106.17-111.07-106.17-111.07,47.53-111.07,106.17,49.73,106.17,111.07,106.17Z"/>
  <path class="st0" d="M310.33,124.94c0,2.26-1.83,4.1-4.1,4.1h-17.14c-58.07,0-108.17-28.67-126.71-70.29-.43-.96-1.36-1.58-2.41-1.58h0c-.95,0-1.83.52-2.29,1.35-9.79,17.35-24.2,31.6-41.72,42.75-9.35,6.23-18.19,10.98-30.51,14.24-.87.23-1.73-.48-1.66-1.38,3.85-49.86,28.53-91.67,76.27-109.23,4.9-1.63,13.58-4.9,35.93-4.9,50.63,0,94.73,35.93,109.43,86.57,1.58,6.77,5.29,18.79,4.9,35.93v2.44Z"/>
</svg>